<svg width="203" height="203" viewBox="0 0 203 203" fill="none" xmlns="http://www.w3.org/2000/svg">
<path d="M101.5 0L122.863 49.9244L173.271 29.7287L153.076 80.1367L203 101.5L153.076 122.863L173.271 173.271L122.863 153.076L101.5 203L80.1367 153.076L29.7287 173.271L49.9244 122.863L0 101.5L49.9244 80.1367L29.7287 29.7287L80.1367 49.9244L101.5 0Z" fill="#FEE440"/>
<path d="M101.5 17.5933L119.141 58.8642L160.766 42.169L144.089 83.8397L185.314 101.5L144.089 119.16L160.766 160.831L119.141 144.136L101.5 185.407L83.8591 144.136L42.2343 160.831L58.9111 119.16L17.6856 101.5L58.9111 83.8397L42.2343 42.169L83.8591 58.8642L101.5 17.5933Z" fill="#00BBF9"/>
</svg>
